<svg xmlns="http://www.w3.org/2000/svg" width="1200" height="630" viewBox="0 0 1200 630">
  <defs>
    <linearGradient id="bg" x1="0%" y1="0%" x2="100%" y2="0%">
      <stop offset="0%" stop-color="#fdf2f8"/>
      <stop offset="100%" stop-color="#e0f2f1"/>
    </linearGradient>
  </defs>
  <rect width="1200" height="630" rx="40" fill="url(#bg)"/>
  <g stroke="#1e1b4b" stroke-width="6" stroke-linejoin="round" fill="#ffffff" opacity="0.88">
    <rect x="160" y="140" width="160" height="220" rx="24"/>
    <rect x="360" y="140" width="140" height="320" rx="24"/>
    <rect x="540" y="140" width="200" height="180" rx="24"/>
    <rect x="780" y="140" width="140" height="260" rx="24"/>
    <rect x="940" y="140" width="120" height="200" rx="24"/>
    <rect x="160" y="380" width="200" height="120" rx="24"/>
    <rect x="380" y="380" width="160" height="160" rx="24"/>
    <rect x="580" y="360" width="200" height="180" rx="24"/>
    <rect x="820" y="360" width="240" height="140" rx="24"/>
  </g>
  <g fill="#f472b6" opacity="0.45">
    <circle cx="220" cy="200" r="16"/>
    <circle cx="420" cy="190" r="14"/>
    <circle cx="620" cy="200" r="16"/>
    <circle cx="860" cy="200" r="16"/>
    <circle cx="980" cy="200" r="14"/>
  </g>
  <g fill="#1e293b" font-family="'Fira Sans', 'Segoe UI', sans-serif" font-size="28" font-weight="600" opacity="0.8">
    <text x="160" y="100">Masonry</text>
    <text x="520" y="100">Gallery</text>
    <text x="880" y="100">Lightbox</text>
  </g>
</svg>
