<svg xmlns="http://www.w3.org/2000/svg" width="1680" height="1040" viewBox="0 0 1680 1040">
  <defs>
    <linearGradient id="metro-sky" x1="0%" y1="0%" x2="100%" y2="0%">
      <stop offset="0%" stop-color="#11153a"/>
      <stop offset="100%" stop-color="#1f285f"/>
    </linearGradient>
    <linearGradient id="train" x1="0%" y1="0%" x2="100%" y2="0%">
      <stop offset="0%" stop-color="#ff6f91"/>
      <stop offset="100%" stop-color="#ffc15e"/>
    </linearGradient>
  </defs>
  <rect width="1680" height="1040" fill="url(#metro-sky)"/>
  <g opacity="0.5" stroke="#3d4c9b" stroke-width="14" stroke-linecap="round">
    <path d="M140 740 Q420 600 840 640 T1540 520"/>
    <path d="M140 820 Q420 680 840 720 T1540 600" opacity="0.5"/>
  </g>
  <rect x="220" y="420" width="1220" height="280" rx="70" fill="#161e48"/>
  <rect x="260" y="460" width="1140" height="200" rx="60" fill="url(#train)"/>
  <g fill="#11153a">
    <circle cx="380" cy="560" r="28"/>
    <circle cx="540" cy="560" r="28"/>
    <circle cx="700" cy="560" r="28"/>
    <circle cx="860" cy="560" r="28"/>
    <circle cx="1020" cy="560" r="28"/>
    <circle cx="1180" cy="560" r="28"/>
  </g>
  <g fill="#ffe391" opacity="0.8">
    <circle cx="440" cy="760" r="34"/>
    <circle cx="780" cy="820" r="28"/>
    <circle cx="1120" cy="780" r="32"/>
    <circle cx="1440" cy="720" r="26"/>
  </g>
  <g fill="#2a3570" opacity="0.7">
    <rect x="260" y="880" width="220" height="60" rx="30"/>
    <rect x="580" y="910" width="260" height="50" rx="25"/>
    <rect x="940" y="900" width="220" height="55" rx="28"/>
    <rect x="1280" y="870" width="200" height="48" rx="24"/>
  </g>
</svg>
